<svg viewBox="0 0 1200 630" xmlns="http://www.w3.org/2000/svg" role="img">
<title>GEO Skills social card</title>
<desc>Open-source Claude Code skills to get your site cited by AI — ChatGPT, Perplexity, Claude, Gemini. Unblock AI crawlers, llms.txt, answer-ready content. Honest GEO. github.com/oncesylvia/geo-skills.</desc>
<rect x="0" y="0" width="1200" height="630" fill="#0F1115"/>
<rect x="0" y="0" width="1200" height="8" fill="#8E7DE8"/>

<text x="64" y="96" fill="#8E7DE8" font-family="sans-serif" font-size="23" font-weight="500">Open-source Claude Code skills</text>
<text x="1136" y="96" fill="#99A2AE" font-family="sans-serif" font-size="19" text-anchor="end">earn it. don't game it.</text>

<text x="64" y="186" fill="#F4F6F8" font-family="sans-serif" font-size="52" font-weight="500">Get your site cited</text>
<text x="64" y="252" fill="#F4F6F8" font-family="sans-serif" font-size="52" font-weight="500">by AI — the honest way.</text>

<polyline points="64,326 73,336 90,314" fill="none" stroke="#8E7DE8" stroke-width="4" stroke-linecap="round" stroke-linejoin="round"/>
<text x="104" y="334" fill="#E4E8EC" font-family="sans-serif" font-size="23">Unblock AI crawlers — robots + the CDN that 403s them</text>

<polyline points="64,388 73,398 90,376" fill="none" stroke="#8E7DE8" stroke-width="4" stroke-linecap="round" stroke-linejoin="round"/>
<text x="104" y="396" fill="#E4E8EC" font-family="sans-serif" font-size="23">llms.txt + answer-first content + schema.org</text>

<polyline points="64,450 73,460 90,438" fill="none" stroke="#8E7DE8" stroke-width="4" stroke-linecap="round" stroke-linejoin="round"/>
<text x="104" y="458" fill="#E4E8EC" font-family="sans-serif" font-size="23">Honest GEO — earn citations, no cloaking</text>

<rect x="840" y="176" width="296" height="264" rx="14" fill="#171A21" stroke="#2A313B" stroke-width="1"/>
<rect x="872" y="208" width="236" height="12" rx="6" fill="#39414F"/>
<rect x="872" y="236" width="236" height="12" rx="6" fill="#39414F"/>
<rect x="872" y="264" width="190" height="12" rx="6" fill="#39414F"/>
<rect x="872" y="292" width="140" height="12" rx="6" fill="#39414F"/>
<rect x="872" y="340" width="196" height="42" rx="21" fill="#8E7DE8"/>
<text x="892" y="367" fill="#241A52" font-family="sans-serif" font-size="19" font-weight="500">✓ yoursite.com</text>

<line x1="64" y1="528" x2="1136" y2="528" stroke="#2A313B" stroke-width="1"/>
<text x="64" y="576" fill="#8E7DE8" font-family="monospace" font-size="25">github.com/oncesylvia/geo-skills</text>
<text x="1136" y="576" fill="#99A2AE" font-family="sans-serif" font-size="23" text-anchor="end">MIT · ChatGPT · Perplexity · Claude</text>
</svg>
